<svg width="343" height="306" viewBox="0 0 343 306" fill="none" xmlns="http://www.w3.org/2000/svg">
<path d="M141.121 197.694C141.361 197.694 141.6 197.694 141.848 197.694C141.607 197.662 141.362 197.662 141.121 197.694Z" fill="#F9F5F2"/>
<path d="M174.734 22.3799V305.988H176.924L199.088 305.948H199.223L242.009 305.877H242.952L256.615 305.861L259.187 305.853H259.331L296.46 305.789L302.109 305.765L303.06 305.757L321.604 305.669V22.3799H174.734Z" fill="#F9F5F2"/>
<path d="M259.259 41.7873L270.094 41.6754H280.92L302.588 41.6035H303.387V42.4025L303.26 76.9427V77.5899H302.62L280.8 77.3182L259.291 76.9427L281.104 76.5672L301.981 76.3035V76.9427L302.62 76.2955H301.981L301.845 43.1615H302.644L301.845 42.3626V43.1615L280.952 43.0896L270.126 43.0417L259.835 42.9378V42.3945L259.283 42.9298H259.827L259.731 50.9197L259.603 59.5008L259.283 76.9108L258.972 59.7645L258.844 51.0875L258.74 42.3705V41.8272L259.259 41.7873Z" fill="#DBDBDB"/>
<path d="M198.704 51.0554L198.6 42.3384V41.7951H199.16L209.986 41.6832H220.828L242.489 41.6113H243.288V42.4103L243.152 76.9505V77.5977H242.521L220.7 77.3261L199.191 76.9505L221.012 76.575L241.873 76.3114V76.9505L242.521 76.3034H241.873L241.746 43.1694H242.545L241.746 42.3704V43.1694L220.86 43.0974L210.018 43.0495L199.727 42.9456V42.4023L199.183 42.9376H199.719L199.631 50.9275L199.495 59.5087L199.183 76.9186L198.872 59.7723L198.736 51.0953" fill="#DBDBDB"/>
<path d="M259.259 95.5195L302.588 95.4316H303.387V96.2306L303.3 145.84C303.3 154.107 303.265 162.376 303.196 170.648L303.02 195.457V195.888H302.596L280.84 195.689L259.267 195.465L281.024 195.233L302.165 195.041V195.457L302.596 195.025H302.165L302.021 170.632C301.968 162.36 301.933 154.091 301.917 145.824L301.821 96.9897H302.62L301.821 96.1907V96.9897L259.955 96.9098V96.2146L259.267 96.9098H259.939C259.939 104.9 259.939 112.89 259.859 120.879L259.683 145.648L259.251 195.449L258.828 146.016L258.644 121.135C258.572 112.842 258.588 104.524 258.564 96.2146V95.5275L259.259 95.5195Z" fill="#DBDBDB"/>
<path d="M199.151 95.5195L242.481 95.4316H243.28V96.2306L243.176 145.84C243.176 154.109 243.128 162.379 243.08 170.648L242.928 195.465V195.896H242.505L220.748 195.697L199.175 195.473L220.932 195.241L242.073 195.049V195.457L242.505 195.025H242.073L241.929 170.632C241.865 162.36 241.831 154.091 241.825 145.824L241.73 96.9897H242.529L241.73 96.1907V96.9897L199.871 96.9098V96.2146L199.175 96.9098H199.871C199.871 104.9 199.871 112.89 199.783 120.879L199.607 145.648L199.175 195.449L198.744 146.016L198.576 121.135C198.496 112.842 198.512 104.524 198.488 96.2146V95.5275L199.151 95.5195Z" fill="#DBDBDB"/>
<path d="M259.259 214.073L302.588 213.993H303.387V214.792L303.3 264.409C303.3 272.681 303.265 280.951 303.196 289.218L303.084 305.445V305.757H302.133V305.429L302.045 289.186C301.992 280.919 301.957 272.649 301.941 264.377L301.845 215.535H302.644L301.845 214.736V215.535L259.939 215.431V214.744L259.251 215.431H259.939C259.939 223.421 259.939 231.411 259.859 239.401L259.683 264.17L259.331 305.309V305.813H259.187V305.309L258.844 264.521L258.66 239.649C258.588 231.347 258.604 223.038 258.58 214.728V214.033L259.259 214.073Z" fill="#DBDBDB"/>
<path d="M199.151 214.073L242.481 213.993H243.28V214.792L243.176 264.409C243.176 272.679 243.128 280.948 243.08 289.218L242.984 305.349V305.901H242.041V305.349L241.945 289.218C241.881 280.951 241.847 272.681 241.841 264.409L241.745 215.567H242.544L241.745 214.768V215.567L199.887 215.479V214.792L199.191 215.479H199.887C199.887 223.469 199.887 231.459 199.799 239.449L199.623 264.217L199.271 305.261V305.957H199.135V305.261L198.776 264.569L198.608 239.697C198.528 231.395 198.544 223.086 198.52 214.776V214.081L199.151 214.073Z" fill="#DBDBDB"/>
<path d="M161.599 8.86914V305.965L174.734 305.989V22.38H321.604V305.669L334.732 305.613V8.86914H161.599Z" fill="#DBDBDB"/>
<path d="M179.968 195.44H193.287V231.914H179.968V195.44Z" fill="#DBDBDB"/>
<path d="M181.254 201.792C181.282 202.849 181.622 203.875 182.229 204.74C182.837 205.605 183.687 206.272 184.671 206.657C185.656 207.042 186.732 207.128 187.766 206.904C188.799 206.681 189.744 206.158 190.481 205.4C191.219 204.643 191.717 203.685 191.913 202.646C192.109 201.607 191.995 200.533 191.584 199.559C191.173 198.585 190.484 197.753 189.603 197.169C188.722 196.584 187.689 196.272 186.631 196.271C185.916 196.281 185.209 196.431 184.551 196.714C183.894 196.996 183.298 197.406 182.799 197.918C182.3 198.431 181.906 199.037 181.641 199.702C181.376 200.366 181.245 201.077 181.254 201.792Z" fill="#C7C7C7"/>
<path d="M114.459 106.401H141.848V117.979H114.459V106.401Z" fill="#929292"/>
<path d="M56.3326 251.002H28.9434V239.425H56.3326V251.002Z" fill="#F9F5F2"/>
<path d="M41.048 236.405H13.6587L13.6587 224.827H41.048V236.405Z" fill="#F9F5F2"/>
<path d="M102.511 31.974L104.002 74.0303L37.6877 76.3808L36.197 34.3245L102.511 31.974Z" fill="#929292"/>
<path d="M36.2221 34.3249C38.9866 36.7937 41.815 39.1188 44.5875 41.5717C47.36 44.0246 50.1804 46.3177 53.0408 48.6587C55.9917 51.1036 58.9453 53.5272 61.9015 55.9295L62.1652 56.1612L70.0432 62.5531L70.4267 62.8487L70.7863 62.5211C73.2525 60.2254 75.716 57.9216 78.1769 55.6099C78.2706 55.5367 78.3587 55.4565 78.4406 55.3702C81.229 52.7655 84.0335 50.1448 86.774 47.4762C89.4186 44.9594 92.0633 42.3946 94.692 39.8299C97.3206 37.2651 99.9413 34.6684 102.53 32.0078C99.7575 34.3089 97.041 36.7059 94.3085 39.0549C91.5759 41.4039 88.8514 43.8488 86.1428 46.2458C83.1333 48.9091 80.1238 51.6283 77.1142 54.4034L70.3628 60.5716C67.9659 58.678 65.5689 56.7684 63.1719 54.8988C59.976 52.374 56.78 49.8705 53.5841 47.3883C50.7184 45.1725 47.8394 42.9726 44.947 40.7887C42.0068 38.6234 39.1304 36.4582 36.2221 34.3249Z" fill="white"/>
<path d="M77.0262 55.3623L77.1141 55.4262C77.4737 55.7139 77.8332 56.0015 78.1928 56.2731C79.9026 57.6234 81.6524 58.9018 83.4341 60.1482C85.5994 61.6903 87.8126 63.1524 90.0417 64.6066C92.2709 66.0607 94.5161 67.451 96.8092 68.8093C99.1022 70.1675 101.411 71.4859 103.8 72.6843C101.723 70.9985 99.5736 69.4245 97.4084 67.8904C95.2431 66.3564 93.014 64.8862 90.7928 63.4321C88.5716 61.9779 86.3105 60.5797 84.0174 59.2214C82.1957 58.1428 80.342 57.0801 78.4245 56.0894C77.993 55.8577 77.5536 55.634 77.1061 55.4102L77.0262 55.3623Z" fill="white"/>
<path d="M37.82 75.0253C40.1131 73.659 42.3343 72.1729 44.5155 70.6628C46.6968 69.1527 48.8461 67.5787 50.9793 65.9967C53.1126 64.4148 55.206 62.7608 57.2594 61.075C58.9373 59.7087 60.5912 58.3185 62.1891 56.8563L63.2198 55.9215C63.2418 55.8956 63.2658 55.8715 63.2917 55.8496L63.1959 55.8975L61.9255 56.6965C60.1118 57.8231 58.346 59.0056 56.5962 60.2201C54.407 61.7302 52.2737 63.3042 50.1404 64.8941C48.0071 66.4841 45.9218 68.0901 43.8684 69.8159C41.815 71.5417 39.7536 73.2116 37.82 75.0253Z" fill="white"/>
<path d="M46.0563 92.6065L55.5471 121.816L9.49066 136.781L-0.000201182 107.571L46.0563 92.6065Z" fill="#929292"/>
<path d="M0.0279655 107.568C2.46488 108.742 4.90976 109.829 7.35467 110.972C9.79957 112.114 12.2525 113.169 14.7054 114.247C17.1583 115.326 19.8269 116.477 22.3836 117.571L22.6153 117.683L29.4147 120.559L29.7503 120.687L29.9341 120.392C31.2071 118.261 32.4748 116.149 33.7372 114.056L33.8651 113.84C35.3032 111.443 36.7255 109.046 38.1317 106.649C39.5379 104.252 40.8163 102.023 42.1266 99.6898C43.437 97.3568 44.7712 95.0157 46.0576 92.6348C44.5715 94.8 43.1493 97.0292 41.7031 99.2264C40.257 101.424 38.8348 103.677 37.4206 105.922C35.8226 108.415 34.2566 110.929 32.7225 113.464C31.548 115.35 30.3895 117.252 29.2229 119.145C27.1695 118.29 25.1082 117.435 23.0548 116.604C20.3062 115.475 17.5604 114.362 14.8172 113.265C12.3643 112.282 9.89545 111.315 7.43457 110.364C4.97369 109.414 2.49684 108.431 0.0279655 107.568Z" fill="white"/>
<path d="M32.8903 114.111H32.9623L33.8891 114.495C35.3592 115.094 36.8453 115.637 38.3474 116.157C40.1771 116.804 42.0228 117.387 43.8764 117.962C45.7301 118.538 47.5917 119.057 49.4693 119.56C51.347 120.064 53.2406 120.519 55.1501 120.879C53.3604 120.08 51.5387 119.441 49.709 118.801C47.8794 118.162 46.0177 117.579 44.1721 117.004C42.3264 116.428 40.4488 115.901 38.5792 115.406C37.0851 115.006 35.575 114.607 34.0489 114.319L32.9862 114.111H32.8903Z" fill="white"/>
<path d="M9.32004 135.788C10.6544 134.366 11.9167 132.88 13.1392 131.378C14.3617 129.876 15.5362 128.35 16.7426 126.808C17.9491 125.266 19.0517 123.692 20.1543 122.094C21.0572 120.799 21.9441 119.489 22.775 118.147C22.9508 117.851 23.1265 117.571 23.3023 117.284C23.3138 117.261 23.3272 117.24 23.3423 117.22L23.2864 117.276L22.5513 118.075C21.5046 119.225 20.5059 120.416 19.5151 121.614C18.2847 123.116 17.1182 124.65 15.9277 126.192C14.7372 127.734 13.6106 129.308 12.508 130.906C11.4054 132.504 10.3188 134.11 9.32004 135.788Z" fill="white"/>
<path d="M336.354 305.588L295.278 305.397L254.202 305.325L172.05 305.189L89.8981 305.325L48.8222 305.397L7.74622 305.588L48.8222 305.78L89.8981 305.852L172.05 305.988L254.202 305.852L295.278 305.78L336.354 305.588Z" fill="#263238"/>
<path d="M235.681 227.216C235.681 227.216 217.097 295.505 212.614 305.588H140.53C152.97 273.014 166.137 230.388 166.513 227.424C166.513 227.288 166.513 227.216 166.513 227.216H235.681Z" fill="#BB9275"/>
<path d="M225.582 236.3C225.127 241.845 204.96 300.818 203.266 305.588H202.228C202.228 305.588 224.128 240.343 225.302 236.3C225.334 236.132 225.582 236.132 225.582 236.3Z" fill="#263238"/>
<path d="M176.524 227.208L185.832 288.522L186.16 290.599L186.959 296.144L187.023 296.536L187.247 298.014L188.389 305.564H212.614C217.089 295.481 235.681 227.184 235.681 227.184L176.524 227.208Z" fill="#263238"/>
<path d="M271.827 305.588H203.618C203.618 305.301 203.57 305.069 203.562 304.877C203.554 304.686 203.522 304.414 203.522 304.414L202.379 303.799C198.385 301.609 194.845 299.908 191.945 298.613C191.449 298.398 190.978 298.19 190.515 297.974C189.204 297.407 188.03 296.927 187.055 296.544C184.538 295.553 183.148 295.106 183.148 295.106C183.06 294.898 182.988 294.698 182.916 294.491C173.033 269.33 167.072 230.995 166.513 227.424C166.513 227.232 166.513 227.152 166.513 227.152H263.933C269.718 245.289 281.343 278.639 271.827 305.588Z" fill="#BB9275"/>
<path d="M179.664 293.308C187.926 296.152 195.9 300.187 203.522 304.422C203.575 304.458 203.614 304.511 203.632 304.574C203.649 304.636 203.644 304.702 203.617 304.761C203.59 304.819 203.544 304.866 203.485 304.893C203.427 304.921 203.36 304.926 203.298 304.909C195.26 301.457 187.071 298.158 179.233 294.267C179.116 294.203 179.028 294.097 178.986 293.972C178.944 293.846 178.951 293.709 179.005 293.588C179.06 293.467 179.158 293.371 179.28 293.319C179.402 293.267 179.539 293.263 179.664 293.308Z" fill="#263238"/>
<path d="M177.108 238.153C177.108 237.874 177.619 237.81 177.619 238.114C177.555 247.653 178.162 256.051 178.961 264.968C179.337 269.106 182.669 291.989 189.851 290.319C191.05 290.04 191.665 288.857 191.849 287.052C192.081 284.87 191.258 282.194 190.898 280.028C190.099 275.235 189.46 270.441 189.052 265.599C188.217 256.59 188.314 247.518 189.34 238.529C189.34 238.468 189.364 238.409 189.408 238.365C189.451 238.322 189.51 238.297 189.572 238.297C189.633 238.297 189.692 238.322 189.736 238.365C189.779 238.409 189.803 238.468 189.803 238.529C189.803 251.033 190.123 263.513 191.993 275.898C192.888 281.85 195.884 290.807 189.66 291.726C183.436 292.644 179.241 277.671 178.442 273.565C176.293 262.115 176.205 249.787 177.108 238.153Z" fill="#263238"/>
<path d="M189.627 290.935C190.259 292.482 190.793 294.067 191.225 295.681C191.688 296.928 191.916 298.25 191.897 299.58C191.884 299.632 191.858 299.679 191.82 299.716C191.782 299.753 191.734 299.778 191.682 299.789C191.63 299.8 191.576 299.796 191.526 299.777C191.477 299.759 191.433 299.726 191.401 299.684C190.554 298.621 190.203 297.159 189.731 295.889C189.18 294.426 188.605 292.972 188.133 291.486C188.08 291.293 188.1 291.087 188.192 290.908C188.283 290.73 188.438 290.592 188.627 290.523C188.815 290.453 189.022 290.457 189.207 290.533C189.393 290.61 189.543 290.753 189.627 290.935Z" fill="#263238"/>
<path d="M222.146 245.64C222.127 244.641 222.229 243.643 222.45 242.668C222.46 242.638 222.48 242.612 222.505 242.593C222.531 242.575 222.562 242.565 222.594 242.565C222.626 242.565 222.657 242.575 222.682 242.593C222.708 242.612 222.727 242.638 222.738 242.668C222.942 243.508 223.054 244.368 223.073 245.233C223.177 246.216 223.305 247.198 223.409 248.189C223.62 250.204 223.973 252.201 224.463 254.166C225.371 257.883 227.265 261.286 229.945 264.017C232.606 266.637 235.755 268.71 239.213 270.121C243.072 271.719 247.131 272.359 251.11 273.533C251.144 273.545 251.173 273.568 251.191 273.599C251.21 273.629 251.217 273.666 251.211 273.701C251.205 273.737 251.187 273.769 251.16 273.792C251.132 273.816 251.098 273.829 251.062 273.829C246.645 273.817 242.272 272.955 238.182 271.288C234.563 269.932 231.269 267.83 228.514 265.12C225.745 262.321 223.794 258.817 222.873 254.989C222.412 253.022 222.144 251.015 222.074 248.996C222.031 247.877 222.055 246.756 222.146 245.64Z" fill="#263238"/>
<path d="M262.263 305.588C264.293 299.684 265.555 293.542 266.019 287.316C266.546 281.088 266.578 274.828 266.115 268.595C265.795 265.495 265.555 262.379 265.028 259.303C264.772 257.761 264.588 256.211 264.229 254.685L263.27 250.107C263.102 249.308 262.959 248.581 262.775 247.822L262.168 245.561L260.945 241.054C260.514 239.56 259.97 238.098 259.491 236.62C259.012 235.142 258.492 233.672 257.973 232.209C258.66 235.246 259.507 238.226 260.186 241.254L261.193 245.792L261.68 248.061C261.84 248.82 261.952 249.579 262.088 250.346L262.887 254.917C263.166 256.435 263.31 257.977 263.526 259.503C264.005 262.555 264.229 265.639 264.525 268.715C264.985 274.872 265.071 281.052 264.78 287.22C264.692 288.762 264.62 290.304 264.453 291.838L264.245 294.147L263.957 296.448C263.589 299.528 263.023 302.581 262.263 305.588Z" fill="#263238"/>
<path d="M201.037 134.861C187.966 156.329 162.087 190.15 149.598 197.677C135.72 206.042 96.0663 177.646 70.3868 160.644C65.2893 157.264 89.0672 116.044 94.3565 119.896C108.091 130.051 136.495 153.637 140.266 152.838C143.35 152.183 169.573 133.918 184.266 123.451C207.613 106.816 210.242 119.752 201.037 134.861Z" fill="#F2A69C"/>
<path d="M104.384 125.944L82.3315 173.316C82.3315 173.316 130.343 204.708 145.276 200.889C160.209 197.07 191.945 153.109 201.253 135.851C210.561 118.593 206.23 108.901 188.189 120.479C170.148 132.056 142.375 150.569 139.451 150.664C136.527 150.76 104.384 125.944 104.384 125.944Z" fill="#92C3C0"/>
<path d="M95.9305 178.973C102.234 158.735 111.91 138.416 113.38 134.757C113.444 134.589 113.716 134.717 113.644 134.885C112.046 138.4 103.473 162.849 96.2181 179.117C96.1462 179.3 95.8665 179.165 95.9305 178.973Z" fill="#263238"/>
<path opacity="0.1" d="M130.814 198.915C136.583 200.865 141.72 201.784 145.276 200.873C160.209 197.054 191.953 153.109 201.261 135.859C205.256 128.477 206.726 122.484 205.703 118.929C187.814 138.152 145.955 182.792 130.814 198.915Z" fill="black"/>
<path d="M84.6567 170.175L104.224 127.542C103.537 126.655 100.596 124.897 97.6962 122.164C97.6962 122.164 90.0898 111.698 87.0217 100.344C84.433 90.8041 81.6765 76.3744 76.491 77.5489C68.9326 79.2827 70.227 97.979 71.6172 108.709C66.1841 106.52 61.2943 105.146 58.1623 105.386C47.7754 106.185 45.3785 153.189 54.1673 159.181C62.6526 164.878 78.896 171.006 84.6567 170.175Z" fill="#F2A69C"/>
<path d="M56.4363 174.586L125.477 169.433L118.685 78.46L49.6449 83.6214L56.4363 174.586Z" fill="#455A64"/>
<path d="M56.6285 88.9586L112.578 84.7812L118.498 164.076L62.5489 168.253L56.6285 88.9586Z" fill="white"/>
<path d="M91.6129 86.3455L112.576 84.7803L118.496 164.075L97.5334 165.64L91.6129 86.3455Z" fill="#F9F5F2"/>
<path d="M100.021 101.862C100.808 102.279 101.684 102.501 102.574 102.512C103.465 102.522 104.345 102.319 105.141 101.921C105.937 101.522 106.627 100.939 107.153 100.22C107.678 99.5011 108.025 98.6671 108.163 97.7873C108.322 96.7723 108.199 95.733 107.807 94.7834C107.415 93.8338 106.768 93.0106 105.939 92.4042C105.109 91.7978 104.129 91.4316 103.105 91.3457C102.081 91.2599 101.053 91.4578 100.135 91.9176C99.2158 92.3775 98.4414 93.0815 97.8964 93.9526C97.3515 94.8236 97.057 95.8279 97.0453 96.8553C97.0335 97.8827 97.3051 98.8935 97.83 99.7767C98.355 100.66 99.1131 101.381 100.021 101.862Z" fill="#A6A6A6"/>
<path d="M100.86 96.3814C100.883 96.7204 101.006 97.045 101.213 97.3142C101.421 97.5833 101.703 97.7849 102.025 97.8934C102.347 98.002 102.694 98.0126 103.022 97.924C103.35 97.8354 103.644 97.6516 103.868 97.3957C104.091 97.1398 104.234 96.8233 104.278 96.4864C104.321 96.1494 104.264 95.8071 104.113 95.5027C103.962 95.1983 103.724 94.9455 103.43 94.7762C103.135 94.6069 102.797 94.5288 102.458 94.5518C102.003 94.5825 101.58 94.7925 101.28 95.1357C100.98 95.4788 100.829 95.9269 100.86 96.3814Z" fill="white"/>
<path d="M99.9731 101.175L100.021 101.886C100.95 102.364 101.994 102.576 103.036 102.497C104.079 102.418 105.079 102.052 105.926 101.439L105.87 100.736C105.841 100.349 105.736 99.9709 105.561 99.6242C105.386 99.2776 105.145 98.9687 104.851 98.7154C104.557 98.462 104.215 98.269 103.847 98.1475C103.478 98.026 103.089 97.9783 102.702 98.0072C102.314 98.0361 101.937 98.1409 101.59 98.3157C101.243 98.4905 100.935 98.7319 100.681 99.0261C100.428 99.3203 100.235 99.6615 100.113 100.03C99.9919 100.399 99.9442 100.788 99.9731 101.175Z" fill="white"/>
<path d="M73.3163 94.4535L88.415 93.3262L88.493 94.3699L73.3942 95.4973L73.3163 94.4535Z" fill="#F9F5F2"/>
<path d="M62.5332 98.1563L88.6274 96.208L88.7054 97.2518L62.6112 99.2001L62.5332 98.1563Z" fill="#F9F5F2"/>
<path d="M68.5638 100.608L88.8416 99.0938L88.9195 100.138L68.6417 101.652L68.5638 100.608Z" fill="#F9F5F2"/>
<path d="M77.5662 105.746L89.2708 104.872L89.3487 105.916L77.6441 106.79L77.5662 105.746Z" fill="#F9F5F2"/>
<path d="M69.2068 109.269L89.4846 107.755L89.5626 108.799L69.2848 110.313L69.2068 109.269Z" fill="#F9F5F2"/>
<path d="M63.6045 112.586L89.6987 110.638L89.7767 111.681L63.6825 113.63L63.6045 112.586Z" fill="#F9F5F2"/>
<path d="M74.8238 114.651L89.9226 113.523L90.0005 114.567L74.9017 115.695L74.8238 114.651Z" fill="#F9F5F2"/>
<path d="M62.6396 120.346L88.8064 118.515L88.8797 119.561L62.7128 121.393L62.6396 120.346Z" fill="#F9F5F2"/>
<path d="M71.6293 123.597L90.5605 122.184L90.6385 123.227L71.7072 124.641L71.6293 123.597Z" fill="#F9F5F2"/>
<path d="M76.7219 126.119L90.7769 125.069L90.8548 126.113L76.7998 127.163L76.7219 126.119Z" fill="#F9F5F2"/>
<path d="M67.4885 129.706L90.9932 127.951L91.0711 128.995L67.5664 130.75L67.4885 129.706Z" fill="#F9F5F2"/>
<path d="M72.4938 135.134L91.425 133.721L91.503 134.764L72.5718 136.178L72.4938 135.134Z" fill="#F9F5F2"/>
<path d="M65.5413 138.56L91.6355 136.612L91.7134 137.656L65.6192 139.604L65.5413 138.56Z" fill="#F9F5F2"/>
<path d="M68.5678 144.136L92.0725 142.381L92.1504 143.425L68.6457 145.18L68.5678 144.136Z" fill="#F9F5F2"/>
<path d="M78.3651 146.314L92.2847 145.275L92.3626 146.319L78.443 147.358L78.3651 146.314Z" fill="#F9F5F2"/>
<path d="M64.6757 149.294L90.8425 147.462L90.9158 148.509L64.749 150.341L64.6757 149.294Z" fill="#F9F5F2"/>
<path d="M74.0021 155.348L92.9333 153.935L93.0113 154.978L74.08 156.392L74.0021 155.348Z" fill="#F9F5F2"/>
<path d="M65.2892 157.974L91.4561 156.142L91.5293 157.189L65.3625 159.02L65.2892 157.974Z" fill="#F9F5F2"/>
<path d="M68.0898 160.693L91.6599 159.043L91.7332 160.09L68.1631 161.74L68.0898 160.693Z" fill="#F9F5F2"/>
<path d="M100.582 106.043L107.533 105.557L107.606 106.603L100.655 107.09L100.582 106.043Z" fill="#A6A6A6"/>
<path d="M97.6381 110.048L109.175 109.187L109.253 110.23L97.716 111.092L97.6381 110.048Z" fill="#A6A6A6"/>
<path d="M99.7509 112.791L109.392 112.071L109.47 113.115L99.8289 113.835L99.7509 112.791Z" fill="#A6A6A6"/>
<path d="M98.2811 118.709L109.818 117.848L109.896 118.891L98.3591 119.753L98.2811 118.709Z" fill="#A6A6A6"/>
<path d="M97.7799 121.639L110.034 120.724L110.112 121.767L97.8578 122.682L97.7799 121.639Z" fill="#A6A6A6"/>
<path d="M101.657 124.258L110.254 123.616L110.332 124.66L101.735 125.302L101.657 124.258Z" fill="#A6A6A6"/>
<path d="M98.7768 126.537L108.964 125.824L109.037 126.871L98.85 127.584L98.7768 126.537Z" fill="#A6A6A6"/>
<path d="M66.2703 77.061L101.264 74.4482L102.19 86.846L67.196 89.4588L66.2703 77.061Z" fill="#A6A6A6"/>
<path d="M71.6809 81.5039L96.5774 79.6423L95.8583 70.0225L70.9619 71.8761L71.6809 81.5039Z" fill="#A6A6A6"/>
<path d="M74.4616 107.28C76.7227 112.226 69.6037 112.074 69.6037 112.074C69.6037 112.074 79.7908 114.758 80.1664 120.759C80.4939 126.543 71.9048 126.04 71.2896 126.008C71.8249 126.16 81.1252 128.892 80.8775 134.949C80.6058 141.253 72.0886 139.271 71.5213 139.135C71.9847 139.439 78.049 143.49 76.8106 148.052C74.6693 155.89 58.8653 145.943 52.5214 147.677C52.5214 147.677 54.2152 158.767 54.1993 159.094C54.1993 159.094 38.9786 149.938 37.1249 141.253C36.8382 139.994 36.989 138.674 37.5526 137.512C38.1161 136.351 39.0587 135.415 40.225 134.861C40.225 134.861 34.9916 132.464 35.0395 127.67C35.0795 125.217 39.0345 123.084 39.0345 123.084C39.0345 123.084 34.9197 120.982 35.2313 116.732C35.471 113.344 39.402 111.73 39.402 111.73C39.402 111.73 36.3898 107.879 37.7561 104.499C40.4807 97.6601 69.6117 96.7093 74.4616 107.28Z" fill="#F2A69C"/>
<path d="M39.9532 111.386C39.9372 111.381 39.9233 111.371 39.9134 111.357C39.9036 111.344 39.8983 111.327 39.8983 111.31C39.8983 111.293 39.9036 111.277 39.9134 111.263C39.9233 111.25 39.9372 111.24 39.9532 111.234C49.4612 108.582 60.7269 108.582 70.0191 112.033C70.3307 112.145 70.2748 112.697 69.9153 112.633C59.6083 110.907 50.356 110.204 39.9532 111.386Z" fill="#263238"/>
<path d="M38.8585 123.028C38.7467 123.028 38.7227 122.86 38.8585 122.828C48.6621 120.143 61.342 120.495 71.617 125.728C71.9686 125.912 72.1044 126.423 71.689 126.248C64.57 123.283 48.2067 121.949 38.8585 123.028Z" fill="#263238"/>
<path d="M72.0886 139.751C62.0533 135.109 51.5386 134.158 40.6005 134.717C40.4566 134.717 40.4646 134.525 40.6005 134.485C45.8818 132.752 52.8889 133.111 58.322 133.862C63.3765 134.455 68.1867 136.365 72.2723 139.399C72.4081 139.527 72.2963 139.847 72.0886 139.751Z" fill="#263238"/>
<path d="M166.545 227.216L169.365 196.375C169.365 196.375 161.128 183.783 162.334 168.906C163.205 158.071 194.134 120.167 196.123 118.346C204.113 110.891 217.608 113.863 223.145 118.05C253.81 141.221 253.546 178.27 263.893 227.152L166.545 227.216Z" fill="#92C3C0"/>
<path d="M166.545 227.216L169.365 196.375C169.365 196.375 158.755 182.233 162.334 168.906C165.914 155.579 176.46 143.418 176.46 143.418H222.066C222.066 143.418 226.197 183.319 236.64 190.111C242.98 194.339 250.718 195.932 258.213 194.553L263.933 227.152L166.545 227.216Z" fill="#BB9275"/>
<path d="M198.464 192.34C194.047 192.081 189.616 192.151 185.209 192.548C183.02 192.771 180.863 193.099 178.697 193.467C177.611 193.658 176.532 193.802 175.453 193.946C174.321 194.131 173.17 194.176 172.026 194.082C172.005 194.082 171.984 194.09 171.969 194.105C171.954 194.12 171.946 194.14 171.946 194.162C171.946 194.183 171.954 194.203 171.969 194.218C171.984 194.233 172.005 194.242 172.026 194.242C174.125 194.696 176.286 194.796 178.418 194.537C180.639 194.329 182.844 194.018 185.065 193.786C189.54 193.315 194.014 192.851 198.512 192.707C198.672 192.699 198.672 192.356 198.464 192.34Z" fill="#263238"/>
<path d="M208.659 197.805C205.126 196.894 201.543 196.184 197.929 195.679C196.115 195.432 194.31 195.288 192.48 195.192C191.617 195.152 190.738 195.12 189.867 195.104C188.996 195.088 187.95 195.192 186.991 195.16C186.887 195.16 186.871 195.312 186.991 195.312C187.894 195.376 188.797 195.584 189.691 195.695L192.4 196.023C194.206 196.247 196.003 196.494 197.817 196.702C201.437 197.118 205.008 197.565 208.643 198.1C208.803 198.132 208.803 197.853 208.659 197.805Z" fill="#263238"/>
<path d="M216.625 131.161C222.266 139.191 264.964 189.935 277.021 197.605C286.185 203.446 310.275 207.009 309.036 184.27C308.237 169.089 247.514 126.263 223.017 115.885C211.76 111.083 204.808 114.319 216.625 131.161Z" fill="#92C3C0"/>
<path d="M299.368 201.137C295.771 202.112 292.003 202.278 288.334 201.624C284.689 201.029 281.189 199.749 278.019 197.853C276.441 196.9 274.935 195.832 273.513 194.657C272.091 193.491 270.733 192.22 269.39 190.942C266.714 188.361 264.125 185.677 261.576 182.952C256.431 177.567 251.461 171.99 246.483 166.437L231.606 149.658C233.883 152.614 236.248 155.499 238.597 158.447C240.946 161.395 243.391 164.192 245.788 167.044C250.63 172.722 255.613 178.294 260.737 183.759C263.326 186.468 265.947 189.136 268.671 191.709C270.038 192.987 271.42 194.258 272.89 195.448C274.361 196.651 275.936 197.72 277.596 198.644C280.899 200.509 284.527 201.727 288.286 202.232C290.142 202.459 292.016 202.494 293.879 202.335C295.756 202.192 297.603 201.789 299.368 201.137Z" fill="#263238"/>
<path d="M237.319 156.473C236.34 155.673 235.319 154.926 234.259 154.236L231.119 152.135C231.888 153.163 232.839 154.043 233.923 154.731C234.976 155.454 236.118 156.04 237.319 156.473Z" fill="#263238"/>
<path d="M222.066 143.418H215.099C214.823 133.396 216.249 123.4 219.318 113.855L223.824 114.998C223.824 114.998 219.39 133.471 222.066 143.418Z" fill="#BB9275"/>
<path d="M193.766 116.619C193.766 116.619 184.37 130.154 176.46 143.417H180.887L198.616 114.758L193.766 116.619Z" fill="#BB9275"/>
<path d="M216.793 119.073C216.242 121.006 207.429 132.376 198.48 131.521C195.564 131.241 195.228 116.188 195.228 116.188L195.021 114.99L192.12 98.2829L212.135 86.7935L215.019 85.2754C215.019 85.2754 215.507 89.9015 216.066 95.6622C216.066 95.9259 216.114 96.1975 216.138 96.4612C216.162 96.7249 216.226 97.0924 216.25 97.396C216.338 98.2509 216.434 99.1298 216.505 100.009C216.561 100.68 216.625 101.327 216.657 102.03C216.689 102.733 216.753 103.412 216.809 104.123C217.193 111.075 217.009 118.242 216.793 119.073Z" fill="#F2A69C"/>
<path d="M216.066 95.6383C214.172 100.198 211.307 104.292 207.671 107.633C204.036 110.975 199.716 113.485 195.013 114.99L192.113 98.2829L212.135 86.7935L215.019 85.2754C215.019 85.2754 215.507 89.8776 216.066 95.6383Z" fill="#263238"/>
<path d="M210.026 83.6617C215.355 80.0902 230.328 74.8329 238.238 86.4661C249.536 103.061 225.071 132.168 223.816 147.469C221.539 175.186 207.141 190.75 194.366 183.008C180.04 174.331 180.935 150.713 207.813 124.082C224.591 107.424 227.18 95.255 223.313 92.4585C219.446 89.6621 213.43 92.1309 213.43 92.1309L210.026 83.6617Z" fill="#263238"/>
<path d="M212.143 82.4311C214.885 81.0196 217.788 79.9464 220.788 79.2351C223.842 78.4761 227.02 78.3618 230.12 78.8995C233.301 79.4743 236.22 81.0372 238.462 83.3659C240.697 85.6756 242.341 88.4904 243.256 91.5715C244.073 94.6522 244.223 97.8722 243.695 101.016C243.165 104.088 242.286 107.091 241.074 109.964C238.612 115.619 235.522 120.979 231.862 125.944C234.931 120.672 237.602 115.178 239.852 109.509C240.891 106.69 241.637 103.771 242.081 100.8C242.534 97.8842 242.368 94.9061 241.594 92.0589C240.785 89.2363 239.314 86.6476 237.303 84.5084C235.32 82.359 232.728 80.8674 229.873 80.2339C226.947 79.6038 223.926 79.5522 220.98 80.0821C219.479 80.3049 217.992 80.6197 216.53 81.0249C215.049 81.435 213.587 81.9037 212.143 82.4311Z" fill="#263238"/>
<path d="M216.849 114.679C214.372 117.507 211.592 120.048 208.915 122.669C206.239 125.289 203.514 127.862 200.925 130.531C198.337 133.199 195.78 135.948 193.471 138.848C191.117 141.7 189.051 144.778 187.303 148.036C185.531 151.233 184.379 154.735 183.907 158.359C183.575 162.007 183.883 165.684 184.818 169.226C185.734 172.79 187.478 176.089 189.907 178.853C191.128 180.246 192.524 181.473 194.062 182.505C194.828 183.017 195.629 183.477 196.459 183.879C197.288 184.314 198.177 184.626 199.096 184.806C197.217 184.537 195.414 183.884 193.798 182.888C192.144 181.941 190.621 180.78 189.268 179.437C187.919 178.07 186.746 176.54 185.776 174.882C184.816 173.215 184.049 171.443 183.491 169.601C182.934 167.778 182.554 165.905 182.357 164.008L182.229 162.57L182.173 161.14C182.132 160.17 182.159 159.198 182.253 158.232C182.703 154.387 183.889 150.666 185.745 147.269C189.38 140.502 194.533 134.821 199.951 129.612C202.667 126.999 205.495 124.522 208.348 122.085C211.2 119.648 214.093 117.227 216.849 114.679Z" fill="#263238"/>
<path d="M209.147 82.9508C210.209 81.5446 212.622 80.5539 213.709 81.0492C214.796 81.5446 219.086 89.6623 218.287 91.8036C217.488 93.9449 213.365 93.074 213.365 93.074L209.147 82.9508Z" fill="#92C3C0"/>
<path d="M170.244 68.8006C163.972 97.8917 180.679 104.931 186.959 106.281C192.656 107.496 212.199 110.939 221.443 82.6551C230.687 54.3709 219.15 42.2583 206.262 38.7747C193.375 35.2911 176.516 39.7095 170.244 68.8006Z" fill="#F2A69C"/>
<path d="M179.768 64.5103C180.452 64.5011 181.135 64.4557 181.814 64.3744C182.544 64.4318 183.272 64.2433 183.883 63.8391C184.05 63.6758 184.158 63.4621 184.191 63.231C184.225 63 184.181 62.7644 184.067 62.5607C183.777 62.1932 183.396 61.9092 182.96 61.7379C182.525 61.5666 182.052 61.5141 181.59 61.586C180.632 61.5894 179.71 61.9481 179.001 62.5927C178.847 62.7487 178.742 62.9463 178.699 63.1612C178.655 63.3761 178.675 63.599 178.757 63.8026C178.838 64.0062 178.977 64.1816 179.157 64.3073C179.337 64.433 179.549 64.5035 179.768 64.5103Z" fill="#263238"/>
<path d="M200.158 72.0686C199.501 71.8701 198.856 71.6353 198.225 71.3655C197.511 71.2109 196.869 70.8264 196.395 70.2709C196.28 70.0676 196.235 69.8317 196.268 69.6003C196.302 69.3689 196.411 69.1551 196.579 68.9925C196.958 68.7199 197.403 68.5538 197.868 68.5116C198.334 68.4695 198.801 68.5528 199.224 68.7528C200.146 69.0196 200.933 69.6245 201.429 70.4467C201.531 70.6393 201.576 70.8575 201.557 71.0748C201.538 71.2922 201.456 71.4993 201.321 71.6711C201.187 71.8429 201.005 71.9719 200.799 72.0425C200.592 72.113 200.37 72.1221 200.158 72.0686Z" fill="#263238"/>
<path d="M195.164 75.6955C195.164 75.6236 195.308 75.8154 195.292 75.8953C194.893 77.8847 194.773 80.2338 196.467 81.1926C196.523 81.1926 196.467 81.3284 196.467 81.3044C194.278 80.6253 194.469 77.5172 195.164 75.6955Z" fill="#263238"/>
<path d="M197.298 73.9059C200.55 74.2015 199.695 80.6893 196.707 80.4177C193.718 80.146 194.573 73.6662 197.298 73.9059Z" fill="#263238"/>
<path d="M198.528 74.4169C199.048 74.8563 199.519 75.5754 200.198 75.7272C200.877 75.879 201.66 75.3038 202.26 74.7125C202.323 74.6566 202.371 74.7125 202.363 74.8004C202.22 76.0468 201.564 77.2613 200.222 77.2773C198.984 77.2773 198.257 76.0788 198.105 74.7924C198.073 74.5527 198.321 74.2331 198.528 74.4169Z" fill="#263238"/>
<path d="M183.124 73.1067C183.124 73.0268 182.956 73.1866 182.956 73.2745C182.884 75.2959 182.453 77.605 180.559 78.1483C180.503 78.1483 180.503 78.2681 180.559 78.2602C182.836 78.1004 183.38 75.0322 183.124 73.1067Z" fill="#263238"/>
<path d="M181.462 70.8701C178.226 70.3987 177.523 76.9025 180.519 77.3339C183.515 77.7654 184.179 71.2616 181.462 70.8701Z" fill="#263238"/>
<path d="M180.152 71.0691C179.544 71.3807 178.913 71.964 178.226 71.964C177.539 71.964 176.9 71.205 176.452 70.4939C176.404 70.422 176.34 70.4938 176.332 70.5578C176.181 71.8042 176.516 73.1305 177.834 73.4661C179.033 73.7697 180.032 72.755 180.479 71.5405C180.559 71.3168 180.391 70.9493 180.152 71.0691Z" fill="#263238"/>
<path d="M191.473 91.2445C190.954 91.676 190.419 92.2912 189.676 92.2912C188.927 92.2139 188.203 91.9798 187.55 91.6041C187.486 91.6041 187.414 91.6041 187.454 91.6999C187.71 92.1222 188.075 92.4671 188.511 92.6979C188.948 92.9287 189.438 93.0367 189.931 93.0103C190.351 92.9349 190.738 92.7379 191.047 92.4438C191.355 92.1498 191.57 91.7716 191.665 91.3564C191.705 91.2365 191.553 91.1806 191.473 91.2445Z" fill="#263238"/>
<path d="M184.099 82.7989C184.099 82.7989 183.3 85.7392 183.068 87.1534C183.068 87.2812 183.38 87.3931 183.867 87.489C183.867 87.489 183.867 87.489 183.923 87.489C185.106 87.8773 186.373 87.9336 187.586 87.6519C188.799 87.3701 189.911 86.7611 190.802 85.891C190.832 85.8666 190.851 85.8315 190.854 85.7933C190.858 85.7551 190.846 85.7169 190.822 85.6873C190.798 85.6576 190.763 85.6388 190.724 85.6351C190.686 85.6313 190.648 85.6429 190.618 85.6673C188.64 86.6476 186.399 86.9643 184.226 86.5701C184.179 86.1627 185.824 81.5845 185.601 81.5365C184.488 81.4791 183.373 81.5704 182.285 81.8082C183.843 75.64 186.376 69.7674 187.83 63.5993C187.878 63.3755 187.566 63.2637 187.478 63.4554C184.386 69.4239 182.437 76.4869 180.671 82.8149C180.439 83.6379 183.499 82.9827 184.099 82.7989Z" fill="#263238"/>
<path d="M223.113 81.9114C218.056 82.3029 216.897 71.7004 216.897 71.7004C216.897 71.7004 206.622 71.7004 203.226 56.9511C203.226 56.9511 203.45 63.8303 207.781 69.1676C207.781 69.1676 189.66 67.25 182.029 52.0852C182.029 52.0852 185.073 59.8114 187.926 62.56C187.926 62.56 180.327 60.4346 176.62 54.2665C176.62 54.2665 173.424 63.0553 171.027 65.4523C171.027 65.4523 171.77 33.7485 201.141 37.1202C201.141 37.1202 219.518 38.3427 226.133 52.9002C232.749 67.4578 223.113 81.9114 223.113 81.9114Z" fill="#263238"/>
<path d="M216.346 83.8933C216.346 83.8933 223.952 75.4879 227.843 78.3004C231.734 81.1128 225.199 93.8726 220.053 95.0791C219.405 95.2791 218.723 95.3458 218.048 95.2751C217.373 95.2045 216.72 94.9979 216.127 94.6679C215.534 94.338 215.014 93.8914 214.599 93.3551C214.183 92.8188 213.881 92.204 213.709 91.5476L216.346 83.8933Z" fill="#F2A69C"/>
<path d="M225.878 81.9281C225.957 81.9281 225.957 82.0399 225.878 82.0559C222.258 83.0147 220.045 85.9789 218.359 89.127C219.542 87.9844 221.02 87.4651 222.578 88.8953C222.658 88.9752 222.578 89.103 222.458 89.071C221.878 88.8018 221.228 88.7187 220.599 88.8332C219.969 88.9476 219.391 89.254 218.942 89.7102C218.199 90.4825 217.54 91.3315 216.977 92.243C216.777 92.5306 216.242 92.291 216.41 91.9554C216.411 91.9288 216.411 91.9021 216.41 91.8755C216.921 87.481 221.108 81.7683 225.878 81.9281Z" fill="#263238"/>
<path d="M219.318 95.2952C219.318 95.6113 219.224 95.9202 219.049 96.183C218.873 96.4458 218.623 96.6506 218.331 96.7716C218.039 96.8925 217.718 96.9242 217.408 96.8625C217.098 96.8009 216.813 96.6487 216.59 96.4252C216.366 96.2017 216.214 95.917 216.153 95.607C216.091 95.297 216.123 94.9757 216.244 94.6837C216.365 94.3917 216.569 94.1422 216.832 93.9666C217.095 93.791 217.404 93.6973 217.72 93.6973C218.144 93.6973 218.55 93.8656 218.85 94.1653C219.15 94.465 219.318 94.8714 219.318 95.2952Z" fill="white"/>
<path d="M179.369 41.443C182.828 41.7147 200.566 48.0906 207.477 54.1709C214.388 60.2512 224.903 76.4866 225.438 77.3415C225.974 78.1964 239.285 49.8723 217.105 36.6811C192.951 22.3073 179.369 41.443 179.369 41.443Z" fill="#92C3C0"/>
<path d="M224.455 75.6795C224.455 75.6795 215.443 49.6485 208.204 42.0182C200.965 34.3879 182.157 25.2395 168.255 26.6537C157.396 27.7403 176.588 47.5152 176.588 47.5152C176.588 47.5152 178.338 44.3193 181.781 44.1275C188.477 43.712 199.143 49.1931 204.856 53.4437C211.999 58.8289 224.455 75.6795 224.455 75.6795Z" fill="#92C3C0"/>
<path opacity="0.2" d="M224.455 75.6795C224.455 75.6795 215.443 49.6485 208.204 42.0182C200.965 34.3879 182.157 25.2395 168.255 26.6537C157.396 27.7403 176.588 47.5152 176.588 47.5152C176.588 47.5152 178.338 44.3193 181.781 44.1275C188.477 43.712 199.143 49.1931 204.856 53.4437C211.999 58.8289 224.455 75.6795 224.455 75.6795Z" fill="black"/>
<path d="M158.595 174.578H265.691V241.022H158.595V174.578Z" fill="#92C3C0"/>
<path opacity="0.2" d="M158.595 174.578H265.691V241.022H158.595V174.578Z" fill="black"/>
<path opacity="0.2" d="M265.683 241.022H225.127V174.578H265.683V241.022Z" fill="black"/>
<path d="M262.895 236.444C259.891 231.719 256.913 226.978 253.962 222.222L245.173 207.936L236.488 193.554C233.607 188.76 230.754 183.966 227.931 179.172C230.935 183.892 233.91 188.63 236.856 193.386L245.645 207.68L254.33 222.062C257.211 226.824 260.066 231.618 262.895 236.444Z" fill="#92C3C0"/>
<path d="M262.895 179.156C260.066 183.95 257.214 188.744 254.338 193.538L245.653 207.92L236.864 222.206C233.923 226.968 230.949 231.708 227.939 236.428C230.762 231.602 233.615 226.795 236.496 222.006L245.181 207.624L253.97 193.33C256.91 188.606 259.885 183.881 262.895 179.156Z" fill="#92C3C0"/>
<path d="M239.325 174.578H251.645V186.899H239.325V174.578Z" fill="#F9F5F2"/>
<path d="M181.094 223.333H181.957V235.501H181.094V223.333Z" fill="#263238"/>
<path d="M179.025 223.333H179.888V235.501H179.025V223.333Z" fill="#263238"/>
<path d="M176.956 223.333H177.819V235.501H176.956V223.333Z" fill="#263238"/>
<path d="M174.886 223.333H175.749V235.501H174.886V223.333Z" fill="#263238"/>
<path d="M172.817 223.333H173.68V235.501H172.817V223.333Z" fill="#263238"/>
<path d="M170.747 223.333H171.61V235.501H170.747V223.333Z" fill="#263238"/>
<path d="M168.678 223.333H169.541V235.501H168.678V223.333Z" fill="#263238"/>
<path d="M166.609 223.333H167.472V235.501H166.609V223.333Z" fill="#263238"/>
<path d="M164.531 223.333H165.394V235.501H164.531V223.333Z" fill="#263238"/>
<path d="M190.427 234.607L187.111 235.525H194.901L191.577 234.591V230.124C193.974 229.813 194.901 227.464 194.901 223.365H187.111C187.111 227.456 188.054 229.813 190.427 230.124V234.607Z" fill="#263238"/>
<path d="M196.715 229.541H198.752V235.493H203.961V229.541H205.999L201.357 223.333L196.715 229.541Z" fill="#263238"/>
<path opacity="0.1" d="M158.595 241.022V235.197L225.127 224.411V241.014L158.595 241.022Z" fill="black"/>
<path d="M164.531 172.437H255.089V174.578H164.531V172.437Z" fill="#F9F5F2"/>
<path d="M166.881 170.304H257.438V172.445H166.881V170.304Z" fill="#C7C7C7"/>
<path d="M160.782 190.089L226.332 201.345L219.194 242.912L153.644 231.656L160.782 190.089Z" fill="white"/>
<path d="M162.686 190.119C164.899 193.083 167.184 195.951 169.421 198.908C171.658 201.864 173.975 204.668 176.268 207.521C178.665 210.501 181.062 213.457 183.459 216.405L183.675 216.685C185.808 219.282 187.958 221.878 190.067 224.475L190.387 224.843L190.802 224.595C193.678 222.843 196.549 221.085 199.415 219.322L199.719 219.138C202.963 217.14 206.207 215.143 209.442 213.082C212.534 211.148 215.627 209.167 218.711 207.193C221.795 205.22 224.879 203.198 227.939 201.113C224.743 202.799 221.635 204.604 218.487 206.354C215.339 208.104 212.199 209.942 209.067 211.771C205.583 213.795 202.097 215.854 198.608 217.947C195.993 219.503 193.383 221.063 190.778 222.629C188.829 220.304 186.871 217.955 184.906 215.654C182.293 212.554 179.68 209.462 177.035 206.402C174.67 203.664 172.295 200.937 169.909 198.22C167.504 195.456 165.131 192.747 162.686 190.119Z" fill="#DBDBDB"/>
<path d="M198.416 218.842L198.48 218.922C198.776 219.274 199.064 219.625 199.359 219.969C200.765 221.631 202.22 223.237 203.714 224.803C205.527 226.744 207.397 228.622 209.307 230.492C211.216 232.361 213.118 234.159 215.083 235.941C217.049 237.722 219.078 239.48 221.14 241.134C219.454 239.065 217.664 237.099 215.85 235.174C214.037 233.248 212.159 231.362 210.257 229.493C208.356 227.623 206.438 225.809 204.473 224.02C202.875 222.606 201.277 221.191 199.679 219.849C199.295 219.529 198.92 219.226 198.528 218.922L198.416 218.842Z" fill="#DBDBDB"/>
<path d="M156.118 230.228C158.635 229.349 161.104 228.342 163.533 227.296C165.962 226.249 168.383 225.146 170.787 224.028C173.192 222.909 175.581 221.719 177.906 220.472C179.816 219.474 181.718 218.443 183.579 217.332L184.762 216.629C184.792 216.608 184.824 216.589 184.858 216.573H184.746C184.274 216.741 183.811 216.909 183.356 217.085C181.35 217.82 179.361 218.627 177.435 219.482C174.998 220.52 172.593 221.631 170.196 222.765C167.799 223.9 165.402 225.074 163.069 226.313C160.736 227.551 158.387 228.822 156.118 230.228Z" fill="#DBDBDB"/>
<path d="M210.816 202.364L212.164 244.33L145.986 246.456L144.638 204.49L210.816 202.364Z" fill="#F9F5F2"/>
<path d="M144.637 204.485C147.393 206.961 150.189 209.319 152.97 211.747C155.75 214.176 158.563 216.493 161.375 218.842C164.305 221.298 167.235 223.727 170.164 226.129L170.436 226.361L178.266 232.753L178.657 233.056L179.017 232.729C181.483 230.444 183.949 228.153 186.416 225.858C186.507 225.784 186.592 225.704 186.671 225.618C189.468 223.029 192.251 220.414 195.021 217.772C197.665 215.263 200.31 212.714 202.939 210.165C205.567 207.617 208.196 205.028 210.785 202.383C208.02 204.668 205.296 207.057 202.555 209.39C199.815 211.723 197.098 214.144 194.389 216.581C191.377 219.25 188.357 221.966 185.353 224.699L178.601 230.827C176.204 228.934 173.847 227.016 171.474 225.146C168.279 222.622 165.099 220.115 161.935 217.628C159.074 215.407 156.206 213.202 153.329 211.012C150.413 208.799 147.545 206.586 144.637 204.485Z" fill="#C7C7C7"/>
<path d="M185.305 225.61C185.335 225.629 185.362 225.654 185.385 225.682L186.432 226.529C188.141 227.879 189.883 229.165 191.657 230.412C193.814 231.954 196.019 233.424 198.233 234.886C200.446 236.348 202.691 237.738 204.976 239.097C207.261 240.455 209.554 241.781 211.935 242.988C209.874 241.294 207.733 239.72 205.543 238.194C203.354 236.668 201.165 235.174 198.96 233.72C196.755 232.265 194.493 230.851 192.208 229.493C190.395 228.406 188.549 227.344 186.663 226.353C186.232 226.113 185.792 225.89 185.353 225.666L185.305 225.61Z" fill="#C7C7C7"/>
<path d="M146.099 245.105C148.392 243.747 150.613 242.277 152.794 240.775C154.975 239.273 157.125 237.707 159.258 236.141C161.391 234.575 163.485 232.945 165.538 231.251C167.216 229.892 168.878 228.502 170.476 227.048C170.827 226.744 171.163 226.433 171.506 226.121L171.578 226.049C171.551 226.075 171.519 226.095 171.482 226.105L170.212 226.904C168.398 228.015 166.641 229.197 164.883 230.396C162.694 231.906 160.56 233.464 158.427 235.046C156.294 236.628 154.208 238.242 152.147 239.928C150.086 241.614 148.08 243.283 146.099 245.105Z" fill="#C7C7C7"/>
<path d="M215.051 217.38C224.16 209.286 276.502 180.019 287.104 176.36C297.707 172.701 312.672 177.511 307.878 193.45C303.084 209.39 249.32 256.458 229.026 259.766C221.891 260.973 211.752 220.304 215.051 217.38Z" fill="#F2A69C"/>
<path d="M199.623 231.538C201.708 229.94 200.877 228.822 196.187 228.782C191.497 228.742 172.929 232.553 172.146 225.961C171.363 219.37 197.617 214.368 205.448 215.031C213.278 215.694 225.582 219.506 225.582 219.506C220.692 221.503 209.219 227.495 199.623 231.538Z" fill="#F2A69C"/>
<path d="M236.272 257.13C222.21 262.251 205.016 269.49 188.405 266.422C186.563 266.124 184.874 265.215 183.611 263.841C176.141 262.603 174.487 258.704 174.487 258.704C167.879 255.412 166.737 251.193 166.737 251.193C166.737 251.193 157.948 249.643 158.044 244.194C158.092 238.09 170.38 241.462 178.266 239.192C196.347 233.983 220.612 221.527 225.646 219.505L236.272 257.13Z" fill="#F2A69C"/>
<path d="M201.013 247.047C195.66 248.477 190.443 250.019 184.93 250.706C178.873 251.505 172.945 251.193 166.856 251.057C166.818 251.057 166.782 251.073 166.755 251.1C166.728 251.127 166.713 251.163 166.713 251.201C166.713 251.239 166.728 251.276 166.755 251.303C166.782 251.33 166.818 251.345 166.856 251.345C177.795 253.327 190.874 251.585 201.109 247.286C201.333 247.182 201.285 246.975 201.013 247.047Z" fill="#263238"/>
<path d="M205.743 257.505C200.462 258.6 191.162 260.469 174.471 258.52C174.415 258.52 174.391 258.608 174.471 258.624C184.787 261.251 195.631 260.958 205.791 257.777C206.119 257.657 206.095 257.425 205.743 257.505Z" fill="#263238"/>
<path d="M208.18 263.17C199.127 264.696 193.223 264.512 183.619 263.809C183.563 263.809 183.539 263.897 183.619 263.905C194.445 265.855 198.6 265.327 208.292 263.474C208.611 263.41 208.532 263.106 208.18 263.17Z" fill="#263238"/>
<path d="M212.319 214.983L237.751 264.968C237.751 264.968 282.254 239.105 306.112 198.26C314.062 184.677 306.072 166.397 281.967 176.16C257.861 185.924 212.319 214.983 212.319 214.983Z" fill="#92C3C0"/>
<path d="M222.578 211.34C226.573 218.651 241.985 249.14 244.862 255.955C245.061 256.427 244.814 256.674 244.542 256.203C231.95 234.63 225.878 218.874 222.298 211.508C222.202 211.324 222.474 211.156 222.578 211.34Z" fill="#263238"/>
<path d="M100.077 37.1603C100.604 42.2151 102.525 47.024 105.626 51.0503C108.727 55.0767 112.886 58.162 117.639 59.962C122.391 61.7619 127.551 62.2057 132.541 61.2438C137.531 60.2818 142.156 57.952 145.899 54.5143L159.626 56.5278L152.762 44.6628C154.335 40.8017 155.006 36.6329 154.726 32.4733C154.446 28.3137 153.221 24.2728 151.144 20.6576C149.068 17.0424 146.195 13.948 142.744 11.6096C139.292 9.27122 135.353 7.75037 131.226 7.16263C127.098 6.57488 122.891 6.9357 118.924 8.21767C114.957 9.49964 111.335 11.669 108.332 14.561C105.329 17.4529 103.025 20.9913 101.594 24.9073C100.164 28.8232 99.6452 33.0137 100.077 37.1603Z" fill="white"/>
<path d="M100.077 37.1604C100.605 42.219 102.521 47.0332 105.614 51.0708C106.384 52.0736 107.214 53.0289 108.099 53.9311C109.011 54.8085 109.977 55.6277 110.991 56.384C113.013 57.9153 115.24 59.1552 117.607 60.0674C119.975 60.9899 122.46 61.5814 124.99 61.8252C126.257 61.941 127.53 61.9651 128.801 61.8971C130.074 61.8711 131.344 61.7402 132.596 61.5056C137.659 60.5784 142.363 58.2568 146.179 54.8021L145.851 54.9059L159.562 57.0073L160.561 57.1591L160.057 56.2802L153.226 44.3992V44.8626C154.836 40.9318 155.521 36.6836 155.229 32.4458C154.937 28.2081 153.675 24.0942 151.54 20.4216C149.404 16.7632 146.467 13.6356 142.951 11.2732C139.438 8.94503 135.443 7.44355 131.267 6.88169C127.09 6.31983 122.841 6.71221 118.837 8.02933C114.872 9.37397 111.258 11.5879 108.259 14.5091C105.271 17.4202 102.982 20.9711 101.565 24.8946C100.148 28.8181 99.6392 33.0119 100.077 37.1604ZM100.077 37.1604C99.6453 33.0312 100.166 28.8579 101.598 24.9611C103.031 21.0643 105.337 17.5478 108.341 14.6815C111.345 11.8152 114.965 9.67555 118.925 8.42681C122.884 7.17807 127.077 6.8535 131.182 7.47803C135.241 8.09178 139.107 9.62191 142.487 11.9524C145.848 14.306 148.656 17.3621 150.717 20.909C152.74 24.4633 153.931 28.4297 154.201 32.5103C154.46 36.5996 153.8 40.695 152.267 44.4951L152.163 44.7348L152.299 44.9665L159.202 56.7995L159.698 56.0804L145.963 54.1549H145.771L145.635 54.2827C141.971 57.7139 137.422 60.0548 132.5 61.0421C131.273 61.294 130.028 61.4463 128.777 61.4976C125.014 61.7663 121.237 61.2213 117.703 59.8996C115.334 59.0456 113.104 57.8447 111.087 56.3361C110.071 55.5989 109.102 54.7983 108.187 53.9391C107.299 53.0479 106.467 52.1033 105.694 51.1107C102.565 47.0709 100.621 42.2411 100.077 37.1604Z" fill="#263238"/>
<path d="M124.334 49.9524L112.621 38.0954L116.552 34.2044L123.4 41.1316L137.614 18.8398L142.28 21.8201L124.334 49.9524Z" fill="#8971AD"/>
<path d="M18.3569 214.049H136.471V305.589H18.3569V214.049Z" fill="#92C3C0"/>
<path opacity="0.2" d="M18.3569 214.049H136.471V305.589H18.3569V214.049Z" fill="black"/>
<path opacity="0.2" d="M136.471 305.597H91.7358L91.7358 214.057H136.471V305.597Z" fill="black"/>
<path d="M133.387 299.325C130.069 292.815 126.785 286.285 123.535 279.733L113.836 260.046L104.248 240.271C101.052 233.672 97.9066 227.045 94.8119 220.393C98.1197 226.902 101.401 233.432 104.655 239.984L114.363 259.679L123.951 279.454C127.131 286.027 130.276 292.65 133.387 299.325Z" fill="#92C3C0"/>
<path d="M133.387 220.353C130.271 227 127.126 233.626 123.951 240.231L114.363 260.006L104.655 279.693C101.411 286.245 98.1303 292.775 94.8119 299.285C97.9226 292.637 101.068 286.013 104.248 279.414L113.836 259.639L123.535 239.944C126.79 233.392 130.074 226.862 133.387 220.353Z" fill="#92C3C0"/>
<path d="M107.404 214.049H120.987V225.219H107.404V214.049Z" fill="#F9F5F2"/>
<path d="M43.1735 286.078H44.1243V299.501H43.1735V286.078Z" fill="#263238"/>
<path d="M40.8964 286.078H41.8472V299.501H40.8964V286.078Z" fill="#263238"/>
<path d="M38.6112 286.078H39.562V299.501H38.6112V286.078Z" fill="#263238"/>
<path d="M36.3261 286.078H37.2769V299.501H36.3261V286.078Z" fill="#263238"/>
<path d="M34.0409 286.078H34.9917V299.501H34.0409V286.078Z" fill="#263238"/>
<path d="M31.7557 286.078H32.7065V299.501H31.7557V286.078Z" fill="#263238"/>
<path d="M29.4786 286.078H30.4294V299.501H29.4786V286.078Z" fill="#263238"/>
<path d="M27.1937 286.078H28.1445V299.501H27.1937V286.078Z" fill="#263238"/>
<path d="M24.9086 286.078H25.8594V299.501H24.9086V286.078Z" fill="#263238"/>
<path d="M53.4643 298.478L49.8049 299.492H58.394L54.7347 298.47V293.532C57.3554 293.188 58.394 290.608 58.394 286.085H49.8049C49.8049 290.592 50.8436 293.188 53.4643 293.532V298.478Z" fill="#263238"/>
<path d="M60.3996 292.925H62.6447V299.492H68.3895V292.925H70.6426L65.5131 286.085L60.3996 292.925Z" fill="#263238"/>
<path opacity="0.1" d="M18.3568 305.589V299.165L91.7358 287.268V305.589H18.3568Z" fill="black"/>
<path d="M22.6153 181.77H113.868V214.049H22.6153V181.77Z" fill="#92C3C0"/>
<path opacity="0.2" d="M22.6153 181.77H113.868V214.049H22.6153V181.77Z" fill="black"/>
<path opacity="0.2" d="M113.86 214.049H85.9751V181.77H113.86V214.049Z" fill="black"/>
<path d="M111.942 211.827C109.881 209.526 107.827 207.225 105.806 204.916L99.7576 197.973L93.7812 190.998C91.7997 188.67 89.8395 186.334 87.9006 183.991C89.9673 186.286 92.0127 188.59 94.0368 190.902L100.093 197.853L106.062 204.828C108.043 207.145 110.003 209.478 111.942 211.827Z" fill="#92C3C0"/>
<path d="M111.942 183.991C110.003 186.329 108.043 188.665 106.062 190.998L100.093 197.973L94.0368 204.916C92.0127 207.228 89.9673 209.532 87.9006 211.827C89.8448 209.478 91.805 207.143 93.7812 204.82L99.7576 197.853L105.806 190.91C107.827 188.585 109.881 186.284 111.942 183.991Z" fill="#92C3C0"/>
<path d="M95.7468 181.77H104.216V189.328H95.7468V181.77Z" fill="#F9F5F2"/>
<path d="M38.0838 201.888H38.675V210.254H38.0838V201.888Z" fill="#263238"/>
<path d="M36.6617 201.888H37.2529V210.254H36.6617V201.888Z" fill="#263238"/>
<path d="M35.2393 201.888H35.8306V210.254H35.2393V201.888Z" fill="#263238"/>
<path d="M33.8172 201.888H34.4084V210.254H33.8172V201.888Z" fill="#263238"/>
<path d="M32.3951 201.888H32.9863V210.254H32.3951V201.888Z" fill="#263238"/>
<path d="M30.9729 201.888H31.5642V210.254H30.9729V201.888Z" fill="#263238"/>
<path d="M29.5425 201.888H30.1338V210.254H29.5425V201.888Z" fill="#263238"/>
<path d="M28.1204 201.888H28.7117V210.254H28.1204V201.888Z" fill="#263238"/>
<path d="M26.6983 201.888H27.2896V210.254H26.6983V201.888Z" fill="#263238"/>
<path d="M44.4996 209.614L42.2145 210.254H47.5757L45.2906 209.606V206.53C46.8886 206.323 47.5757 204.709 47.5757 201.888H42.2145C42.2145 204.701 42.8617 206.323 44.4996 206.53V209.614Z" fill="#263238"/>
<path d="M48.8221 206.155H50.2204V210.254H53.7998V206.155H55.2061L52.0101 201.888L48.8221 206.155Z" fill="#263238"/>
<path opacity="0.1" d="M22.6155 214.049V210.046L85.9832 202.631V214.049H22.6155Z" fill="black"/>
</svg>
