<svg width="17" height="17" viewBox="0 0 17 17" fill="none" xmlns="http://www.w3.org/2000/svg">
<g clip-path="url(#clip0_1006_47)">
<path d="M16.991 8.24601C16.991 7.58269 16.9332 7.09865 16.808 6.59668H8.66931V9.59056H13.4465C13.3503 10.3346 12.8302 11.4551 11.6743 12.208L11.6581 12.3082L14.2315 14.1635L14.4097 14.1801C16.0471 12.7727 16.991 10.7021 16.991 8.24601Z" fill="#4285F4"/>
<path d="M8.66925 16.135C11.0097 16.135 12.9745 15.4178 14.4097 14.1808L11.6743 12.2088C10.9423 12.6838 9.95985 13.0155 8.66925 13.0155C6.37694 13.0155 4.43137 11.6082 3.73783 9.66309L3.63617 9.67112L0.960407 11.5983L0.925415 11.6889C2.35088 14.3242 5.27889 16.135 8.66925 16.135Z" fill="#34A853"/>
<path d="M3.73788 9.66247C3.55488 9.1605 3.44898 8.62263 3.44898 8.0669C3.44898 7.51111 3.55488 6.97331 3.72825 6.47134L3.7234 6.36443L1.01411 4.40625L0.925466 4.44549C0.337964 5.53909 0.000854492 6.76716 0.000854492 8.0669C0.000854492 9.36665 0.337964 10.5947 0.925466 11.6883L3.73788 9.66247Z" fill="#FBBC05"/>
<path d="M8.66925 3.11939C10.297 3.11939 11.3949 3.77374 12.021 4.32057L14.4674 2.09753C12.965 0.797783 11.0097 0 8.66925 0C5.27889 0 2.35088 1.81068 0.925415 4.44602L3.7282 6.47186C4.43137 4.52672 6.37694 3.11939 8.66925 3.11939Z" fill="#EB4335"/>
</g>
<defs>
<clipPath id="clip0_1006_47">
<rect width="17" height="16.1905" rx="8.09524" fill="white"/>
</clipPath>
</defs>
</svg>
